<svg xmlns="http://www.w3.org/2000/svg" xml:space="preserve"  viewBox="0 0 211 211"><path fill="#fd9a00" fill-rule="evenodd" d="M12.226 18.998a3.975 3.975 0 0 0-3.969-3.985h-3.97A3.975 3.975 0 0 0 .32 18.998a3.975 3.975 0 0 0 3.969 3.986h3.968a3.975 3.975 0 0 0 3.97-3.986M12.427 33.089l-2.81 2.822a3.995 3.995 0 0 0 0 5.636 3.957 3.957 0 0 0 5.613 0l2.81-2.822a4 4 0 0 0 0-5.636 3.957 3.957 0 0 0-5.613 0M32.071 38.927a3.975 3.975 0 0 0-3.969 3.985V46.9a3.975 3.975 0 0 0 3.969 3.985A3.975 3.975 0 0 0 36.04 46.9l-.004-3.987a3.97 3.97 0 0 0-3.965-3.985M51.71 33.093a3.95 3.95 0 0 0-5.608-.004 4 4 0 0 0 0 5.636l2.807 2.818a3.95 3.95 0 0 0 5.612 0 3.993 3.993 0 0 0 0-5.636zM59.854 15.013l-3.977.008c-2.186-.008-3.96 1.774-3.96 3.977a3.97 3.97 0 0 0 3.96 3.986h3.97c2.201.008 3.968-1.783 3.968-3.986a3.97 3.97 0 0 0-3.96-3.985M51.71 4.912l2.807-2.819a3.987 3.987 0 0 0 0-5.636 3.946 3.946 0 0 0-5.608-.004L46.102-.72a3.99 3.99 0 0 0 0 5.628c1.542 1.566 4.062 1.558 5.609.005M32.071-.93c2.19.016 3.969-1.783 3.969-3.978v-3.985a3.97 3.97 0 0 0-3.969-3.985c-2.194-.008-3.969 1.774-3.969 3.978l.008 3.993A3.96 3.96 0 0 0 32.071-.93M12.435 4.908a3.94 3.94 0 0 0 5.602-.004C19.599 3.36 19.59.83 18.045-.724l-2.807-2.818a3.95 3.95 0 0 0-5.613 0 3.98 3.98 0 0 0-.011 5.633z" clip-rule="evenodd" style="stroke-width:.994246" transform="translate(-1.055 42.593)scale(3.3073)"/><path d="M32.071 6.11a15.876 15.942 0 0 0-7.951 2.084 15.876 15.942 0 0 0-5.952 21.739l13.038-7.447-.425-.04q-2.207-.237-3.403-1.343-1.198-1.11-1.197-3.36 0-1.245.46-2.22a4.8 4.8 0 0 1 1.258-1.645 5.4 5.4 0 0 1 1.855-1.008c.295-.093.605-.155.919-.211v-2.19h2.768v2.146c.647.07 1.262.183 1.834.356.971.29 1.991 1.164 1.991 1.164a.5.5 0 0 1 .237.364.53.53 0 0 1-.126.427l-1.301 1.447a.424.424 0 0 1-.53.094s-.77-.6-1.436-.791a7.6 7.6 0 0 0-2.1-.287q-1.443.001-2.132.605-.69.606-.69 1.58-.002.874.49 1.342.491.474 1.657.605l2.177.204a8.4 8.4 0 0 1 1.864.38l10.392-5.934A15.876 15.942 0 0 0 32.07 6.11" style="stroke-width:.994246;fill:#fd9a00" transform="translate(-1.055 42.593)scale(3.3073)"/><path d="M330.94 222.233 221.11 279.36c.766.081 1.48.204 2.253.28l63.566 5.47c19.36 2.157 33.077 7.078 41.186 14.891 8.14 7.875 12.17 18.591 12.17 32.185 0 18.875-8.217 32.687-24.717 41.625-16.468 8.875-37.232 13.314-62.357 13.314-19.922 0-39.893-2.753-60.018-8.222-20.125-5.5-46.685-28.561-46.685-28.561-4.593-2.812-10.531-2.091-14.36 1.69l-35.486 35.5a11.6 11.6 0 0 0-3.311 9.686 11.54 11.54 0 0 0 5.61 8.531s36.296 30.657 64.015 38.251c18.156 5 37.435 8.14 57.607 9.843v58.159h70.831v-59.344c9.47-1.28 18.793-2.846 27.7-5.096 20.374-5.266 37.906-13.251 52.562-23.97 14.594-10.75 26.128-23.874 34.52-39.608 8.358-15.703 12.544-33.968 12.542-54.952 0-35-10.576-61.687-31.78-80.015-14.14-12.22-32.891-21.096-56.02-26.784" style="fill:#fd9a00" transform="matrix(.1293 0 0 .14166 72.159 77.257)"/></svg>